<?xml version="1.0" standalone="no"?>
<!DOCTYPE svg PUBLIC "-//W3C//DTD SVG 20010904//EN"
 "http://www.w3.org/TR/2001/REC-SVG-20010904/DTD/svg10.dtd">
<svg version="1.0" xmlns="http://www.w3.org/2000/svg"
 width="317.000000pt" height="317.000000pt" viewBox="0 0 317.000000 317.000000"
 preserveAspectRatio="xMidYMid meet">
<metadata>
Created by potrace 1.14, written by Peter Selinger 2001-2017
</metadata>
<g transform="translate(0.000000,317.000000) scale(0.100000,-0.100000)"
fill="#000000" stroke="none">
<path d="M0 1590 l0 -480 1585 0 1585 0 0 480 0 480 -1585 0 -1585 0 0 -480z
m3030 395 c27 -14 60 -60 60 -84 0 -5 -19 -12 -41 -16 -37 -6 -44 -4 -63 19
-31 38 -127 42 -146 6 -25 -47 0 -66 125 -96 96 -24 135 -62 135 -132 0 -93
-59 -136 -185 -136 -97 0 -151 23 -180 79 -17 31 -18 37 -5 45 30 19 71 11
100 -20 24 -26 35 -30 82 -30 63 0 98 20 98 55 0 32 -28 48 -114 69 -123 30
-156 59 -156 136 0 67 30 102 105 121 43 12 149 2 185 -16z m-2656 1 c42 -18
66 -51 66 -94 0 -39 -15 -71 -43 -91 -19 -13 -18 -14 11 -27 85 -35 79 -164
-10 -204 -36 -16 -66 -20 -185 -20 l-143 0 0 225 0 225 135 0 c93 0 146 -4
169 -14z m256 -211 l0 -225 -50 0 -50 0 0 225 0 225 50 0 50 0 0 -225z m393
211 c48 -20 69 -50 75 -104 5 -57 -15 -103 -56 -129 -15 -9 -28 -18 -30 -19
-2 -1 17 -33 41 -70 77 -121 76 -114 14 -114 l-53 0 -49 85 -50 85 -52 0 -53
0 0 -85 0 -85 -50 0 -50 0 0 225 0 225 140 0 c96 0 151 -4 173 -14z m408 3
c97 -33 143 -108 137 -223 -4 -88 -29 -140 -87 -181 -42 -29 -46 -30 -177 -33
l-134 -4 0 226 0 226 114 0 c62 0 128 -5 147 -11z m527 -8 c43 -23 60 -46 67
-98 7 -47 -17 -99 -61 -128 l-31 -21 59 -92 58 -93 -57 3 -57 3 -49 83 -49 82
-49 0 -49 0 0 -85 0 -85 -50 0 -50 0 0 225 0 225 140 0 c119 0 147 -3 178 -19z
m242 -206 l0 -225 -50 0 -50 0 0 225 0 225 50 0 50 0 0 -225z m386 206 c69
-31 85 -125 29 -170 -28 -21 -31 -31 -11 -31 8 0 26 -14 40 -31 34 -40 36
-104 4 -144 -36 -46 -73 -55 -228 -55 l-140 0 0 225 0 225 133 0 c107 0 140
-4 173 -19z m-1006 -716 c0 -51 -3 -65 -15 -65 -12 0 -15 14 -15 65 0 51 3 65
15 65 12 0 15 -14 15 -65z m250 51 c0 -8 6 -17 13 -20 10 -5 10 -7 0 -12 -15
-7 -17 -50 -3 -59 17 -10 11 -25 -10 -25 -13 0 -21 8 -25 25 -3 14 -7 36 -10
50 -3 14 -1 25 5 25 5 0 10 7 10 15 0 8 5 15 10 15 6 0 10 -6 10 -14z m350 4
c0 -5 -7 -10 -15 -10 -8 0 -15 5 -15 10 0 6 7 10 15 10 8 0 15 -4 15 -10z
m730 -22 c0 -29 1 -30 18 -15 27 25 50 22 28 -2 -17 -18 -17 -22 -2 -43 9 -12
16 -26 16 -30 0 -17 -28 -7 -43 15 l-16 22 0 -22 c-1 -14 -7 -23 -16 -23 -12
0 -15 14 -15 65 0 51 3 65 15 65 10 0 15 -10 15 -32z m100 22 c0 -5 -7 -10
-15 -10 -8 0 -15 5 -15 10 0 6 7 10 15 10 8 0 15 -4 15 -10z m50 -4 c0 -8 6
-17 13 -20 10 -5 10 -7 0 -12 -15 -7 -17 -50 -3 -59 17 -10 11 -25 -10 -25
-13 0 -21 8 -25 25 -3 14 -7 36 -10 50 -3 14 -1 25 5 25 5 0 10 7 10 15 0 8 5
15 10 15 6 0 10 -6 10 -14z m-1530 -35 c16 -32 12 -41 -20 -41 -16 0 -30 -5
-30 -11 0 -7 10 -9 26 -5 19 5 25 3 22 -6 -6 -18 -46 -22 -64 -8 -17 15 -19
61 -2 78 18 18 56 14 68 -7z m150 0 c16 -32 12 -41 -20 -41 -16 0 -30 -5 -30
-11 0 -7 10 -9 26 -5 19 5 25 3 22 -6 -6 -18 -46 -22 -64 -8 -17 15 -19 61 -2
78 18 18 56 14 68 -7z m99 5 c9 -11 9 -16 0 -22 -7 -4 -15 -2 -17 4 -8 25 -32
12 -32 -18 0 -20 5 -30 15 -30 8 0 15 5 15 10 0 6 7 10 15 10 18 0 19 -12 3
-28 -15 -15 -51 -15 -66 0 -7 7 -12 24 -12 38 0 14 5 31 12 38 16 16 53 15 67
-2z m141 4 c0 -5 -7 -10 -15 -14 -9 -3 -15 -19 -15 -41 0 -24 -4 -35 -15 -35
-11 0 -15 12 -15 49 0 49 1 50 30 49 17 -1 30 -4 30 -8z m102 -15 c17 -37 -3
-75 -40 -75 -35 0 -52 16 -52 50 0 34 17 50 52 50 21 0 32 -7 40 -25z m106
-27 c2 -38 0 -48 -12 -48 -12 0 -16 11 -16 41 0 52 -24 48 -28 -4 -2 -24 -8
-37 -18 -37 -10 0 -14 13 -14 49 l0 50 43 -2 42 -2 3 -47z m52 2 c0 -38 -4
-50 -15 -50 -11 0 -15 12 -15 50 0 38 4 50 15 50 11 0 15 -12 15 -50z m99 36
c9 -11 9 -16 0 -22 -7 -4 -15 -2 -17 4 -8 25 -32 12 -32 -18 0 -20 5 -30 15
-30 8 0 15 5 15 10 0 6 7 10 15 10 18 0 19 -12 3 -28 -15 -15 -51 -15 -66 0
-7 7 -12 24 -12 38 0 14 5 31 12 38 16 16 53 15 67 -2z m163 -12 c17 -37 -4
-78 -37 -71 -21 3 -25 0 -25 -19 0 -15 -6 -24 -15 -24 -12 0 -15 14 -15 69 l0
69 40 0 c34 1 43 -3 52 -24z m78 16 c0 -5 -7 -10 -15 -14 -9 -3 -15 -19 -15
-41 0 -24 -4 -35 -15 -35 -11 0 -15 12 -15 49 0 49 1 50 30 49 17 -1 30 -4 30
-8z m90 -9 c16 -32 12 -41 -20 -41 -16 0 -30 -5 -30 -11 0 -7 10 -9 26 -5 19
5 25 3 22 -6 -6 -18 -46 -22 -64 -8 -17 15 -19 61 -2 78 18 18 56 14 68 -7z
m98 1 c3 -9 -3 -11 -24 -6 -19 5 -25 4 -20 -5 4 -6 13 -11 20 -11 8 0 19 -7
26 -15 10 -12 10 -18 0 -31 -16 -18 -71 -15 -78 5 -3 10 3 11 28 6 23 -5 30
-4 26 4 -4 6 -13 11 -20 11 -20 0 -39 27 -32 46 7 19 67 16 74 -4z m100 0 c3
-9 -3 -11 -24 -6 -19 5 -25 4 -20 -5 4 -6 13 -11 20 -11 8 0 19 -7 26 -15 10
-12 10 -18 0 -31 -16 -18 -71 -15 -78 5 -3 10 3 11 28 6 23 -5 30 -4 26 4 -4
6 -13 11 -20 11 -20 0 -39 27 -32 46 7 19 67 16 74 -4z m202 -32 c0 -38 -4
-50 -15 -50 -11 0 -15 12 -15 50 0 38 4 50 15 50 11 0 15 -12 15 -50z"/>
<path d="M170 1875 l0 -55 59 0 c88 0 111 12 111 55 0 43 -23 55 -111 55 l-59
0 0 -55z"/>
<path d="M170 1685 l0 -65 69 0 c85 0 119 12 127 44 15 61 -24 86 -132 86
l-64 0 0 -65z"/>
<path d="M810 1860 l0 -60 79 0 c91 0 111 12 111 65 0 45 -20 55 -114 55 l-76
0 0 -60z"/>
<path d="M1270 1775 l0 -145 64 0 c104 0 142 46 134 166 -4 60 -7 70 -36 95
-29 26 -40 29 -97 29 l-65 0 0 -145z"/>
<path d="M1740 1860 l0 -60 79 0 c71 0 82 2 95 22 21 30 20 61 -2 81 -14 13
-38 17 -95 17 l-77 0 0 -60z"/>
<path d="M2380 1875 l0 -55 63 0 c72 0 107 18 107 55 0 37 -35 55 -107 55
l-63 0 0 -55z"/>
<path d="M2380 1685 l0 -67 80 4 c88 4 113 17 113 63 0 46 -25 59 -113 63
l-80 4 0 -67z"/>
<path d="M1480 1270 c0 -5 7 -10 15 -10 8 0 15 5 15 10 0 6 -7 10 -15 10 -8 0
-15 -4 -15 -10z"/>
<path d="M1630 1270 c0 -5 7 -10 15 -10 8 0 15 5 15 10 0 6 -7 10 -15 10 -8 0
-15 -4 -15 -10z"/>
<path d="M1964 1265 c-7 -18 2 -45 15 -45 5 0 11 7 15 15 7 18 -2 45 -15 45
-5 0 -12 -7 -15 -15z"/>
<path d="M2384 1265 c-7 -18 2 -45 15 -45 12 0 24 37 16 50 -9 15 -25 12 -31
-5z"/>
<path d="M2560 1270 c0 -5 7 -10 15 -10 8 0 15 5 15 10 0 6 -7 10 -15 10 -8 0
-15 -4 -15 -10z"/>
</g>
</svg>
